<?xml version="1.0" encoding="UTF-8"?>
<svg id="Warstwa_1" xmlns="http://www.w3.org/2000/svg" version="1.1" viewBox="0 0 500 500">
  <!-- Generator: Adobe Illustrator 29.7.1, SVG Export Plug-In . SVG Version: 2.1.1 Build 8)  -->
  <defs>
    <style>
      .st0 {
        fill: #005450;
      }
    </style>
  </defs>
  <polygon class="st0" points="270.91 116.5 229.09 116.5 116.57 186.73 116.57 228.56 229.09 158.32 229.09 383.5 270.91 383.5 270.91 158.32 383.43 228.56 383.43 186.73 270.91 116.5"/>
  <path class="st0" d="M96.78,351.77c-14.2-25.34-22.3-54.55-22.3-85.67,0-96.94,78.59-175.53,175.53-175.53s175.53,78.59,175.53,175.53c0,31.11-8.11,60.33-22.3,85.67,19.31-29.09,30.57-63.98,30.57-101.51,0-101.51-82.29-183.79-183.79-183.79S66.21,148.75,66.21,250.25c0,37.53,11.26,72.43,30.57,101.51h0Z"/>
</svg>