<?xml version="1.0" encoding="UTF-8"?>
<svg id="Warstwa_1" xmlns="http://www.w3.org/2000/svg" version="1.1" viewBox="0 0 500 500">
  <!-- Generator: Adobe Illustrator 29.7.1, SVG Export Plug-In . SVG Version: 2.1.1 Build 8)  -->
  <defs>
    <style>
      .st0 {
        fill: #000000;
      }
    </style>
  </defs>
  <circle class="st0" cx="144.19" cy="197.78" r="105.81"/>
  <g>
    <path class="st0" d="M452.67,344.74c10.81-25.96,16.79-54.44,16.79-84.31,0-121.2-98.25-219.46-219.46-219.46-45.94,0-88.58,14.13-123.83,38.26,5.88-.89,11.89-1.35,18.02-1.35,66.22,0,119.9,53.68,119.9,119.9s-53.68,119.9-119.9,119.9c-51.72,0-95.78-32.74-112.61-78.63-.68,7.03-1.04,14.16-1.04,21.37,0,29.88,5.98,58.35,16.79,84.31h405.33Z"/>
    <path class="st0" d="M91.63,412.33c7.81,8.14,16.24,15.67,25.22,22.53h266.3c8.98-6.86,17.41-14.39,25.22-22.53H91.63Z"/>
    <path class="st0" d="M58.28,367.27c4.37,7.82,9.2,15.34,14.45,22.53h354.53c5.26-7.19,10.09-14.71,14.45-22.53H58.28Z"/>
    <path class="st0" d="M346.84,457.4h-193.67c29.21,14.39,62.07,22.48,96.84,22.48s67.63-8.09,96.84-22.48Z"/>
  </g>
</svg>
